# xmcd
#
# Track frame offsets: 
#        150
#        16215
#        31164
#        47942
#        71452
#        85086
#        103114
#        123070
#        137009
#        155785
#        169473
#        192635
#        209323
#        226496
#        254499
#
# Disc length: 4440 seconds
#
# Revision: 2
# Processed by: cddbd v1.5.2PL0 Copyright (c) Steve Scherf et al.
# Submitted via: ExactAudioCopy v0.99pb4
#
DISCID=d311560f
DTITLE=Gloria Gaynor - I Wish You Love
DYEAR=2003
DGENRE=R&B
TTITLE0=Gotta Be Forever
TTITLE1=Stronger
TTITLE2=I Wish You Love
TTITLE3=Let It Rain
TTITLE4=Gone Too Long
TTITLE5=Just No Other Way
TTITLE6=I Never Knew
TTITLE7=Just Keep Thinking About You
TTITLE8=No One Can Love You More
TTITLE9=You Keep Running
TTITLE10=I'm Here For You
TTITLE11=All The Man I Need
TTITLE12=I Never Knew (HQ2 radio edit)
TTITLE13=Pena (Spanglish) (Duet with Alexandre Pires)
TTITLE14=Data track
EXTD=
EXTT0=
EXTT1=
EXTT2=
EXTT3=
EXTT4=
EXTT5=
EXTT6=
EXTT7=
EXTT8=
EXTT9=
EXTT10=
EXTT11=
EXTT12=
EXTT13=
EXTT14=
PLAYORDER=
